<svg width="73" height="73" viewBox="0 0 73 73" fill="none" xmlns="http://www.w3.org/2000/svg">
<circle cx="36.5" cy="36.5" r="35" stroke="#71909A" stroke-width="3"/>
<circle cx="36.4998" cy="36.4998" r="29.8592" stroke="#71909A" stroke-width="3"/>
<path d="M61.6715 46.5961L62.7814 47.6051L62.864 47.5142C64.311 45.9226 65.3325 44.0131 65.8605 41.9617C63.2944 55.8441 51.125 66.3589 36.4998 66.3589C21.4819 66.3589 9.05354 55.2719 6.95325 40.8364C7.43725 43.3879 8.67748 45.7565 10.5401 47.6191C11.8548 48.9339 13.4358 49.9519 15.1768 50.6048L15.3086 50.6542C19.3743 52.1788 23.9224 51.682 27.5631 49.3156L28.5545 48.6712C31.5136 46.7478 33.7547 43.9008 34.9293 40.5726L36.372 36.4849L36.4022 36.3995L36.4218 36.3111L37.0139 33.6468L37.6059 36.3111L37.6256 36.3995L37.6557 36.4849L39.2799 41.0868C40.3324 44.0688 42.2699 46.6586 44.8335 48.5101L45.9998 49.3525C49.2344 51.6886 53.381 52.3633 57.1894 51.1732C59.3373 50.5019 61.2676 49.2703 62.7814 47.6051L61.6715 46.5961ZM66.3068 38.2792C66.2972 38.4418 66.2864 38.6041 66.2742 38.766C66.2744 38.7416 66.2744 38.7172 66.2744 38.6929V38.2846L66.3068 38.2792ZM6.69277 38.2792L6.72513 38.2846V38.4091C6.72513 38.5627 6.72785 38.716 6.73325 38.869C6.71785 38.6729 6.70435 38.4763 6.69277 38.2792Z" fill="#71909A" stroke="#71909A" stroke-width="3"/>
<path d="M33.9297 25.1903L37.0142 17.479L40.0987 25.1903C38.0564 24.8499 35.9719 24.8499 33.9297 25.1903Z" fill="#71909A" stroke="#71909A"/>
</svg>
