<svg width="74" height="74" viewBox="0 0 74 74" fill="none" xmlns="http://www.w3.org/2000/svg">
<path d="M72 37C72 45.0833 69.2598 52.5266 64.6576 58.4516M72 37C72 29.1714 69.4297 21.9431 65.087 16.1129M72 37H24.5949M37 72V2M37 72C25.7533 72 15.7456 66.6954 9.3424 58.4516M37 72C48.2467 72 58.2544 66.6954 64.6576 58.4516M37 72C27.1067 72 18.8965 59.3491 17.3319 42.7595M37 72C43.223 72 48.7802 66.9946 52.4363 59.1519M2 37C2 45.0833 4.74022 52.5266 9.3424 58.4516M2 37C2 29.1714 4.57027 21.9431 8.91299 16.1129M2 37H11.7468M37 2C48.5013 2 58.707 7.54759 65.087 16.1129M37 2C25.4987 2 15.293 7.54759 8.91299 16.1129M37 2C27.1949 2 19.0431 14.4262 17.3754 30.7975M37 2C43.015 2 48.4079 6.6764 52.0633 14.0712M9.3424 58.4516C15.7456 53.7558 25.7533 50.7342 37 50.7342C40.2214 50.7342 43.3412 50.9821 46.3038 51.4462M64.6576 58.4516C62.8647 57.1368 60.7891 55.9532 58.4829 54.9304M65.087 16.1129C63.3694 17.4264 61.3746 18.6153 59.1519 19.6515M8.91299 16.1129C15.293 20.9919 25.4987 24.1519 37 24.1519C40.3825 24.1519 43.6529 23.8786 46.7468 23.3686M55.9178 25.9241C56.5788 29.405 56.9367 33.1291 56.9367 37C56.9367 40.6031 56.6266 44.079 56.0506 47.35" stroke="#71909A" stroke-width="4"/>
<path d="M58.4806 52.5064C58.4806 55.8061 55.8057 58.4811 52.5059 58.4811C49.2062 58.4811 46.5312 55.8061 46.5312 52.5064C46.5312 49.2067 49.2062 46.5317 52.5059 46.5317C55.8057 46.5317 58.4806 49.2067 58.4806 52.5064Z" stroke="#71909A" stroke-width="4"/>
<path d="M23.9259 36.5572C23.9259 39.8569 21.251 42.5319 17.9512 42.5319C14.6515 42.5319 11.9766 39.8569 11.9766 36.5572C11.9766 33.2575 14.6515 30.5825 17.9512 30.5825C21.251 30.5825 23.9259 33.2575 23.9259 36.5572Z" stroke="#71909A" stroke-width="4"/>
<path d="M58.4806 20.608C58.4806 23.9077 55.8057 26.5827 52.5059 26.5827C49.2062 26.5827 46.5312 23.9077 46.5312 20.608C46.5312 17.3083 49.2062 14.6333 52.5059 14.6333C55.8057 14.6333 58.4806 17.3083 58.4806 20.608Z" stroke="#71909A" stroke-width="4"/>
</svg>
